<svg width="568" height="312" fill="none" xmlns="http://www.w3.org/2000/svg"><path d="M1.438 231.655c44.013-6.128 52.075-4.143 55.522 14.413 2.841 15.292-.123-39.811-.213-69.07-9.023 15.709-37.427 45.372-55.31 54.657z" fill="#100F0D"/><path d="M56.747 176.998c.09 29.259 3.054 84.362.213 69.07m-.213-69.07l.213 69.07m-.213-69.07c-9.023 15.709-37.427 45.372-55.31 54.657 44.014-6.128 52.077-4.143 55.523 14.413m-28.718-34.711c-2.977 2.683-10.214 10.011-13.937 12.808" stroke="#100F0D"/><rect width="510.28" height="309.873" rx="17" transform="matrix(-1 .00263 .0031 1 566.501 .263)" fill="#100F0D"/></svg>