<svg width="568" height="312" viewBox="0 0 568 312" fill="none" xmlns="http://www.w3.org/2000/svg">
<path d="M1.43766 231.655C45.4511 225.527 53.5135 227.512 56.9603 246.068C59.801 261.36 56.8373 206.257 56.7469 176.998C47.7242 192.707 19.3203 222.37 1.43766 231.655Z" fill="#100F0D"/>
<path d="M56.7469 176.998C56.8373 206.257 59.801 261.36 56.9603 246.068M56.7469 176.998L56.9603 246.068M56.7469 176.998C47.7242 192.707 19.3203 222.37 1.43766 231.655C45.4511 225.527 53.5135 227.512 56.9603 246.068M28.2422 211.357C25.2652 214.04 18.0282 221.368 14.3053 224.165" stroke="#100F0D"/>
<rect width="510.28" height="309.873" rx="17" transform="matrix(-0.999997 0.00263051 0.00309072 0.999995 566.501 0.262817)" fill="#100F0D"/>
</svg>
